<svg width="900" height="115" viewBox="0 0 900 115" fill="none" xmlns="http://www.w3.org/2000/svg">
<path fill-rule="evenodd" clip-rule="evenodd" d="M88.3531 16C88.3531 16 103.551 27.0667 103.551 38.825C103.551 50.5833 97.3338 57.5 97.3338 57.5C97.3338 57.5 103.551 61.65 103.551 75.4833C103.551 89.3167 88.3531 99 88.3531 99H2V16H88.3531ZM35.1596 36.0583V79.6333H67.6284C67.6284 79.6333 70.5123 76.0659 70.3917 73.4083C70.2821 70.9949 67.6284 67.875 67.6284 67.875H46.2128V47.8167H67.6284C67.6284 47.8167 70.5123 44.2492 70.3917 41.5917C70.2821 39.1782 67.6284 36.0583 67.6284 36.0583H35.1596Z" fill="#FF6533"/>
<path d="M112.532 16H147.073V70.6417C147.073 75.2256 150.785 78.9417 155.363 78.9417H203.721V99H141.547C125.522 99 112.532 85.9939 112.532 69.95V16Z" fill="#FF6533"/>
<path d="M557.423 16H591.965V70.6417C591.965 75.2256 595.676 78.9417 600.254 78.9417H648.612V99H586.438C570.414 99 557.423 85.9939 557.423 69.95V16Z" fill="#FF6533"/>
<path d="M701.115 99H735.656V74.1H781.251V53.35H735.656V44.3583C735.656 39.7744 739.368 36.0583 743.946 36.0583H792.304V16H730.13C714.105 16 701.115 29.0061 701.115 45.05V99Z" fill="#FF6533"/>
<path d="M409.587 16C424.085 16 435.838 27.7675 435.838 42.2833V46.4333H402.678V45.05C402.678 40.466 398.967 36.75 394.389 36.75H376.427C371.849 36.75 368.137 40.466 368.137 45.05V71.3333C368.137 75.9173 371.849 79.6333 376.427 79.6333H394.389C398.967 79.6333 402.678 75.9173 402.678 71.3333V69.95H435.838V72.7167C435.838 87.2326 424.085 99 409.587 99H361.229C346.731 99 334.978 87.2325 334.978 72.7167V42.2833C334.978 27.7674 346.731 16 361.229 16H409.587Z" fill="#FF6533"/>
<path d="M446.891 16H480.051V43.6667H494.558L509.756 16H547.752L531.863 43.6667C531.863 43.6667 538.296 47.1461 541.534 50.5833C544.681 53.9237 547.752 60.2667 547.752 60.2667V99H514.592V74.1C514.592 68.752 510.262 64.4167 504.921 64.4167H480.051V99H446.891V16Z" fill="#FF6533"/>
<path d="M658.284 16H691.443V99H658.284V16Z" fill="#FF6533"/>
<path d="M898 16V37.4417H866.913V99H832.372V37.4417H801.975V16H898Z" fill="#FF6533"/>
<path d="M286.573 35.3C289.625 35.3 292.099 37.7848 292.099 40.85V74.15C292.099 77.2152 289.625 79.7 286.573 79.7H253.421C250.37 79.7 247.896 77.2152 247.896 74.15V40.85C247.896 37.7848 250.37 35.3 253.421 35.3H286.573Z" fill="#FF6533"/>
<path fill-rule="evenodd" clip-rule="evenodd" d="M313.509 2C319.612 2 324.56 6.96964 324.56 13.1V101.9C324.56 108.03 319.612 113 313.509 113H225.104C219.001 113 214.053 108.03 214.053 101.9V13.1C214.053 6.96964 219.001 2 225.104 2H313.509ZM238.917 18.65C234.34 18.65 230.629 22.3772 230.629 26.975V88.025C230.629 92.6228 234.34 96.35 238.917 96.35H299.696C304.273 96.35 307.984 92.6228 307.984 88.025V26.975C307.984 22.3772 304.273 18.65 299.696 18.65H238.917Z" fill="#FF6533"/>
</svg>
