<svg width="900" height="115" viewBox="0 0 900 115" fill="none" xmlns="http://www.w3.org/2000/svg">
<path d="M88.6787 15L88.9414 15.1914L88.9424 15.1924H88.9434C88.9441 15.1929 88.9452 15.1935 88.9463 15.1943C88.9487 15.1961 88.9519 15.1991 88.9561 15.2021C88.9644 15.2083 88.9767 15.2171 88.9922 15.2285C89.0232 15.2515 89.0681 15.2855 89.126 15.3291C89.2419 15.4165 89.4104 15.5443 89.623 15.7109C90.0488 16.0445 90.6541 16.5321 91.3789 17.1533C92.8271 18.3946 94.7598 20.1768 96.6963 22.3359C100.527 26.6067 104.552 32.5542 104.552 38.8252C104.552 44.8841 102.949 49.7018 101.342 53.0088C100.538 54.662 99.7331 55.94 99.124 56.8096C98.9771 57.0193 98.8412 57.2052 98.7197 57.3672C98.8153 57.4588 98.918 57.5594 99.0254 57.6709C99.6638 58.3337 100.493 59.3527 101.314 60.8145C102.96 63.7439 104.552 68.4111 104.552 75.4834C104.552 82.7664 100.558 88.8792 96.6895 93.1045C94.7449 95.2284 92.8032 96.9074 91.3477 98.0557C90.6192 98.6303 90.0101 99.0738 89.5811 99.375C89.3665 99.5256 89.1966 99.6413 89.0791 99.7197C89.0203 99.7589 88.9741 99.7889 88.9424 99.8096C88.9267 99.8198 88.9149 99.8284 88.9062 99.834C88.902 99.8367 88.898 99.8382 88.8955 99.8398C88.8945 99.8405 88.8933 99.8413 88.8926 99.8418L88.8916 99.8428L88.3535 99L88.8906 99.8438L88.6445 100H1V15H88.6787ZM148.073 15V70.6416C148.073 74.6744 151.338 77.9414 155.363 77.9414H204.721V100H141.547C124.969 100 111.532 86.5451 111.532 69.9502V15H148.073ZM409.587 15L410.29 15.0088C425.017 15.3823 436.838 27.4516 436.838 42.2832V47.4336H401.679V45.0498C401.679 41.0171 398.414 37.75 394.389 37.75H376.427C372.402 37.7502 369.138 41.0172 369.138 45.0498V71.333C369.138 75.3657 372.402 78.6336 376.427 78.6338H394.389C398.414 78.6337 401.679 75.3658 401.679 71.333V68.9502H436.838V72.7168C436.838 87.7837 424.638 99.9999 409.587 100H361.229C346.177 99.9997 333.978 87.7836 333.978 72.7168V42.2832C333.978 27.2164 346.177 15.0003 361.229 15H409.587ZM592.965 15V70.6416C592.965 74.6744 596.23 77.9414 600.255 77.9414H649.612V100H586.438C569.86 99.9998 556.423 86.545 556.423 69.9502V15H592.965ZM692.443 15V100H657.284V15H692.443ZM793.304 15V37.0586H743.946C739.921 37.0586 736.656 40.3256 736.656 44.3584V52.3496H782.251V75.0996H736.656V100H700.115V45.0498C700.115 28.4549 713.552 15 730.13 15H793.304ZM899 15V38.4414H867.913V100H831.372V38.4414H800.976V15H899ZM36.1592 78.6338H67.1299C67.1704 78.5786 67.2166 78.519 67.2637 78.4531C67.5187 78.096 67.8568 77.5945 68.1895 77.0176C68.8854 75.8106 69.4387 74.4731 69.3926 73.4541C69.3504 72.5253 68.7874 71.332 68.1211 70.2676C67.8023 69.7584 67.4855 69.3179 67.248 69.0049C67.2127 68.9583 67.1779 68.9155 67.1465 68.875H45.2129V46.8164H67.1309C67.1712 46.7614 67.2169 46.7022 67.2637 46.6367C67.5187 46.2796 67.8567 45.7781 68.1895 45.2012C68.8856 43.994 69.4388 42.6558 69.3926 41.6367C69.3503 40.708 68.7874 39.5145 68.1211 38.4502C67.8023 37.941 67.4854 37.5004 67.248 37.1875C67.213 37.1413 67.1786 37.0988 67.1475 37.0586H36.1592V78.6338ZM548.752 100H513.592V74.0996C513.592 69.3031 509.709 65.4172 504.921 65.417H481.051V100H445.892V15H481.051V42.667H493.967L508.88 15.5186L509.165 15H549.479L548.619 16.498L533.23 43.291C533.291 43.326 533.355 43.3612 533.421 43.3994C534.085 43.7852 535.004 44.336 536.026 44.9961C538.053 46.3042 540.556 48.0867 542.262 49.8975C543.918 51.6552 545.52 54.159 546.688 56.1758C547.278 57.1932 547.767 58.1048 548.109 58.7617C548.281 59.0903 548.416 59.3558 548.508 59.54C548.554 59.6321 548.59 59.7037 548.614 59.7529C548.626 59.7774 548.635 59.7965 548.642 59.8096C548.645 59.8161 548.647 59.8217 548.648 59.8252C548.649 59.827 548.651 59.8281 548.651 59.8291V59.8311L548.752 60.0371V100Z" fill="white" stroke="#0D0300" stroke-width="2"/>
<path d="M286.573 35.3C289.625 35.3 292.099 37.7848 292.099 40.85V74.15C292.099 77.2152 289.625 79.7 286.573 79.7H253.421C250.37 79.7 247.896 77.2152 247.896 74.15V40.85C247.896 37.7848 250.37 35.3 253.421 35.3H286.573Z" fill="#FF6533"/>
<path fill-rule="evenodd" clip-rule="evenodd" d="M313.509 2C319.612 2 324.56 6.96964 324.56 13.1V101.9C324.56 108.03 319.612 113 313.509 113H225.104C219.001 113 214.053 108.03 214.053 101.9V13.1C214.053 6.96964 219.001 2 225.104 2H313.509ZM238.917 18.65C234.34 18.65 230.629 22.3772 230.629 26.975V88.025C230.629 92.6228 234.34 96.35 238.917 96.35H299.696C304.273 96.35 307.984 92.6228 307.984 88.025V26.975C307.984 22.3772 304.273 18.65 299.696 18.65H238.917Z" fill="#FF6533"/>
</svg>
